<?xml version="1.0" encoding="utf-8"?>
<!-- Generator: Adobe Illustrator 25.2.1, SVG Export Plug-In . SVG Version: 6.00 Build 0)  -->
<svg version="1.1" id="Calque_1" xmlns="http://www.w3.org/2000/svg" xmlns:xlink="http://www.w3.org/1999/xlink" x="0px" y="0px"
	 viewBox="0 0 155 24" style="enable-background:new 0 0 155 24;" xml:space="preserve">
<style type="text/css">
	.st0{enable-background:new    ;}
	.st1{fill:#FDFDFD;}
</style>
<g class="st0">
	<path class="st1" d="M24.7,16.4h-5.2l-0.8,1.9h-2.1l5.5-12.8l5.5,12.8h-2.1L24.7,16.4z M22.1,10.1l-1.8,4.4h3.6L22.1,10.1z"/>
	<path class="st1" d="M29.3,6.2h2v10.3H35l0.3,1.9h-6.1V6.2z"/>
	<path class="st1" d="M37.5,6.2h2v12.2h-2V6.2z"/>
	<path class="st1" d="M42,12.2c0-3.7,2.5-6.1,6.2-6.1h1.5l-0.3,1.9h-1c-2.6,0-4.2,1.6-4.2,4.1c0,2.6,1.7,4.2,4.2,4.2h1l0.3,1.9h-1.5
		C44.5,18.4,42,16,42,12.2z"/>
	<path class="st1" d="M52,6.2H58l-0.3,1.9H54v3.1h3.7v1.9H54v3.3h3.7l0.3,1.9H52V6.2z"/>
	<path class="st1" d="M67.8,10.5v7.8h-2V5.6l5.9,6.6l5.9-6.6v12.8h-2v-7.8l-3.9,4.4L67.8,10.5z"/>
	<path class="st1" d="M87.2,16.4h-5.2l-0.8,1.9h-2.1l5.5-12.8l5.5,12.8H88L87.2,16.4z M84.6,10.1l-1.8,4.4h3.6L84.6,10.1z"/>
	<path class="st1" d="M93.9,13.8v4.5h-2V6.2h3.1c2.7,0,4.3,1.6,4.3,4.2c0,2-1.1,3.2-2.7,3.8l3.1,4.2h-2.5L93.9,13.8z M93.9,8.1v4.7
		h0.7c1.7,0,2.6-0.9,2.6-2.3c0-1.5-1-2.3-2.4-2.3H93.9z"/>
	<path class="st1" d="M105.6,8.1v10.3h-2V8.1h-2.7l-0.3-1.9h8l-0.3,1.9H105.6z"/>
	<path class="st1" d="M110.7,6.2h2v12.2h-2V6.2z"/>
	<path class="st1" d="M118.2,10.6v7.8h-2V5.6l7.6,8.3V6.2h2v12.8L118.2,10.6z"/>
	<path class="st1" d="M135.5,16.4h-5.2l-0.8,1.9h-2.1l5.5-12.8l5.5,12.8h-2.1L135.5,16.4z M132.9,10.1l-1.8,4.4h3.6L132.9,10.1z"/>
</g>
</svg>
