<svg xmlns="http://www.w3.org/2000/svg" width="30" height="30" viewBox="0 0 30 30"><defs><style>.a{fill:#a09500;}</style></defs><path class="a" d="M31.5,23.5a15,15,0,1,0,15,15A15.017,15.017,0,0,0,31.5,23.5ZM28.783,51.455a2.724,2.724,0,0,0,.07-.6V47.338c0-1.286.446-1.486.96-2.269a.882.882,0,0,0-.608-1.356c-3.5-.522-4.874-2.327-5.411-3.748a5.99,5.99,0,0,1,.919-5.743,1.1,1.1,0,0,0,.225-1.031,5.343,5.343,0,0,1-.059-2.6,6.468,6.468,0,0,1,2.28,1.033c.468.285.8.548,1.368.4a12.005,12.005,0,0,1,2.973-.424,12.024,12.024,0,0,1,2.974.423c.563.153.907-.116,1.367-.4a6.454,6.454,0,0,1,2.28-1.033,5.321,5.321,0,0,1-.056,2.594,1.1,1.1,0,0,0,.221,1.039,5.987,5.987,0,0,1,.919,5.743c-.536,1.421-1.91,3.226-5.41,3.748a.882.882,0,0,0-.608,1.356c.512.782.962.981.959,2.271v3.519a2.791,2.791,0,0,0,.07.6,13.293,13.293,0,0,1-5.434,0Zm7.138-.476a.985.985,0,0,1-.01-.125V47.34a4.247,4.247,0,0,0-.5-2.164,7.6,7.6,0,0,0,5.441-4.588,7.756,7.756,0,0,0-1.01-7.241c.274-1.206.265-3.11-.391-3.977A1.35,1.35,0,0,0,38.3,28.8a7.613,7.613,0,0,0-3.6,1.451,13.7,13.7,0,0,0-3.186-.424h-.021a13.642,13.642,0,0,0-3.186.424A7.6,7.6,0,0,0,24.7,28.8a1.351,1.351,0,0,0-1.157.566c-.656.865-.664,2.765-.391,3.976a7.767,7.767,0,0,0-1.01,7.241,7.6,7.6,0,0,0,5.441,4.588,3.9,3.9,0,0,0-.469,1.577,1.947,1.947,0,0,1-2.574-.882,3.638,3.638,0,0,0-3.252-2.014.883.883,0,0,0,.152,1.759c.631-.055,1.253.6,1.583,1.157a3.636,3.636,0,0,0,4.064,1.816v2.264a1.03,1.03,0,0,1-.01.13,13.234,13.234,0,1,1,8.843,0Zm0,0" transform="translate(-16.5 -23.5)"/></svg>