<?xml version="1.0" encoding="utf-8"?>
<!-- Generator: Adobe Illustrator 25.2.1, SVG Export Plug-In . SVG Version: 6.00 Build 0)  -->
<svg version="1.1" id="Calque_1" xmlns="http://www.w3.org/2000/svg" xmlns:xlink="http://www.w3.org/1999/xlink" x="0px" y="0px"
	 viewBox="0 0 32.5 31.8" style="enable-background:new 0 0 32.5 31.8;" xml:space="preserve">
<style type="text/css">
	.st0{fill:#0511F2;}
	.st1{fill:#A09500;}
	.st2{fill:#FFFFFF;}
</style>
<g transform="translate(328 527.921)">
	<g transform="translate(0 0)">
		<path class="st0" d="M-778.7-518h7.6c0.3,0,0.5-0.2,0.5-0.5c0,0,0,0,0-0.1v-2.2c0-0.3-0.2-0.5-0.5-0.5c0,0,0,0-0.1,0h-7.6
			c-0.3,0-0.5,0.2-0.5,0.5c0,0,0,0,0,0.1v2.2C-779.3-518.2-779.1-518-778.7-518C-778.8-518-778.8-518-778.7-518z M-778.2-520.1h6.5
			v1.1h-6.5V-520.1z"/>
		<path class="st0" d="M-786.6-513.1c1.6-1,2.4-3,1.9-4.9c-0.6-3.5-4.2-4.4-6-4.3h-9.2c-0.3,0-0.5,0.2-0.5,0.5c0,0,0,0,0,0.1v18.4
			c0,0.3,0.2,0.5,0.5,0.5c0,0,0,0,0.1,0h9.9c2.3,0,6-0.9,6.4-4.7C-783.2-509.8-784.4-512.1-786.6-513.1z M-784.7-507.6
			c-0.5,4-5.5,3.7-5.7,3.7h-8.9v-17.3h8.6c0.1,0,4.3,0,4.9,3.4c0.5,1.8-0.6,3.7-2.3,4.2c-0.2,0.1-0.4,0.3-0.4,0.5
			c0,0.3,0.2,0.5,0.4,0.5C-785.8-512.1-784.3-509.9-784.7-507.6L-784.7-507.6z"/>
		<path class="st0" d="M-767.9-508.8c0-4.8-3.1-8.1-7.6-8.1c-4.3,0-7.6,3.7-7.6,7c0,4.7,3.2,8.1,7.6,8.1c3.1,0.1,5.9-1.8,7-4.8
			c0-0.2,0-0.3-0.1-0.4c-0.1-0.1-0.3-0.2-0.4-0.2h-3.2c-0.2,0-0.4,0.2-0.5,0.4c-0.4,0.8-1.3,1.3-2.2,1.2c-1.4,0.1-2.7-1.1-2.7-2.5
			c0-0.1,0-0.1,0-0.2h9.2C-768.2-508.2-767.9-508.4-767.9-508.8C-767.9-508.7-767.9-508.8-767.9-508.8z M-778.3-509.3
			c-0.3,0-0.5,0.2-0.5,0.5c0,0,0,0,0,0.1c0,2.7,1.5,4.3,3.8,4.3c1.3,0.1,2.5-0.5,3.1-1.6h2.1c-1.1,2-3.3,3.3-5.6,3.2
			c-3.8,0-6.5-3-6.5-7c0-2.8,2.8-6,6.5-6c4.2,0,6.3,3.2,6.4,6.5L-778.3-509.3z"/>
		<path class="st0" d="M-796.1-514.2h5.4c1.5,0,2.7-1.2,2.7-2.7c0-1.5-1.2-2.7-2.7-2.7h-5.4c-0.3,0-0.5,0.2-0.5,0.5c0,0,0,0,0,0.1
			v4.3C-796.6-514.4-796.4-514.2-796.1-514.2C-796.1-514.2-796.1-514.2-796.1-514.2z M-795.5-518.5h4.9c0.9,0,1.6,0.7,1.6,1.6
			c0,0.9-0.7,1.6-1.6,1.6h-4.9L-795.5-518.5z"/>
		<path class="st0" d="M-791.2-512h-4.9c-0.3,0-0.5,0.2-0.5,0.5c0,0,0,0,0,0.1v5.4c0,0.3,0.2,0.5,0.5,0.5c0,0,0,0,0.1,0h4.9
			c1.8,0,3.2-1.5,3.2-3.2S-789.4-512-791.2-512L-791.2-512z M-791.2-506.6h-4.3v-4.3h4.3c1.2,0,2.2,1,2.2,2.2
			C-789-507.6-790-506.6-791.2-506.6L-791.2-506.6z"/>
		<path class="st0" d="M-775.2-514.7c-1.9-0.1-3.4,1.3-3.5,3.2c0,0,0,0,0,0.1v0.5c0,0.3,0.2,0.5,0.5,0.5c0,0,0,0,0.1,0h6
			c0.3,0,0.5-0.2,0.5-0.5c0,0,0,0,0-0.1v-0.5c0-1.8-1.6-3.3-3.4-3.3C-775.1-514.7-775.2-514.7-775.2-514.7z M-777.7-511.5
			c0.2-1.3,1.4-2.3,2.7-2.1c1.1,0.1,2,1,2.1,2.1H-777.7z"/>
	</g>
</g>
<g transform="translate(328 434.844)">
	<g transform="translate(0 0)">
		<path class="st0" d="M-690.1-433.7c-2.2,0-4,1.8-4,4c0,0,0,0,0,0c0,1.1,0.4,2.1,1.2,2.8c0.7,0.8,1.7,1.2,2.8,1.2h0.1
			c1,0,2-0.4,2.7-1.2c0.8-0.8,1.2-1.8,1.2-2.8c0-1.1-0.4-2.1-1.2-2.8C-688.1-433.3-689.1-433.7-690.1-433.7z M-688.1-427.5
			c-0.5,0.6-1.3,0.9-2.1,0.9c-0.8,0-1.5-0.3-2.1-0.9c-0.6-0.6-0.9-1.3-0.9-2.1c0-1.7,1.3-3,3-3c0,0,0,0,0.1,0c0.8,0,1.5,0.3,2,0.8
			c0.6,0.6,0.9,1.3,0.9,2.2C-687.2-428.9-687.5-428.1-688.1-427.5z"/>
		<path class="st0" d="M-688.2-424.7h-4c-0.8,0-1.5,0.7-1.5,1.5c0,0,0,0,0,0v17.5c0,0.8,0.7,1.5,1.5,1.5h4c0.8,0,1.5-0.6,1.5-1.5
			v-17.5C-686.7-424-687.4-424.7-688.2-424.7z M-687.7-405.6c0,0.3-0.2,0.5-0.5,0.5h-4c-0.3,0-0.5-0.2-0.5-0.5v-17.5
			c0-0.3,0.2-0.5,0.5-0.5h4c0.3,0,0.5,0.2,0.5,0.5V-405.6z"/>
		<path class="st0" d="M-671.2-425.2h-1c-1.9,0-3.7,0.8-5,2.2v-0.7c0-0.5-0.5-1-1-1h-5c-0.5,0-1,0.4-1,0.9v18.6c0,0.5,0.5,0.9,1,0.9
			h5.5c0.5,0,1-0.4,1-0.9v-10.8c-0.1-1.6,1.1-2.9,2.7-2.9c0,0,0,0,0.1,0c0.8,0,1.5,0.3,2.1,0.9c0.5,0.6,0.8,1.3,0.7,2.1v10.8
			c0,0.5,0.5,1,1,1h5c0.5,0,1-0.5,1-1v-12.9c0.1-3.8-3-7-6.8-7.1C-671-425.2-671.1-425.2-671.2-425.2z M-665.2-405.2L-665.2-405.2
			l-5,0.1l0-10.8c0.1-1-0.3-2-1-2.8c-0.7-0.7-1.8-1.2-2.8-1.1c-2.1,0.1-3.8,1.8-3.8,3.9v10.7h-5.5v-18.5h5l0,0v3.1l1.3-1.4l0.1,0
			c1.1-1.5,2.8-2.3,4.6-2.3h1c3.3,0,6,2.7,6,6c0,0,0,0.1,0,0.1V-405.2z"/>
	</g>
</g>
<g transform="translate(328 482.978)">
	<path class="st0" d="M-716.8-476.5c-0.2-0.1-0.4-0.2-0.6-0.2l-1,0.4c0.6-0.6,1-1.4,1.3-2.2c0.1-0.2,0.1-0.5-0.1-0.6
		c-0.2-0.2-0.4-0.2-0.6-0.1c-1.2,0.5-2.4,1-3.7,1.4c0,0.1-0.1,0-0.1,0c-1.3-0.8-2.7-1.3-4.2-1.5c-3.7,0.1-6.6,3.2-6.5,6.8v0.2
		c-5.3-1-8.2-2.5-11.4-5.9l-0.5-0.5l-0.3,0.6c-1.7,3.3-0.5,6.3,1.5,8.4c-0.8-0.1-1.5-0.4-2.1-0.9c-0.2-0.2-0.5-0.2-0.7-0.1
		c-0.2,0.1-0.3,0.4-0.3,0.7c0.8,2.3,2.3,4.3,4.4,5.5c-0.9,0.1-1.7-0.2-2.4-0.6c-0.2-0.1-0.5-0.1-0.7,0.1c-0.2,0.1-0.3,0.4-0.2,0.7
		c0.8,2.5,3,4.2,5.5,4.3c-2,1.1-4.2,1.7-6.4,1.6c-0.3,0-0.6,0.2-0.7,0.5c-0.1,0.3,0,0.6,0.2,0.8c1.8,1.5,5.9,2.3,10.9,2.3
		c9,0,16.3-8,16.3-17.8v-0.2c1.2-0.6,2.1-1.8,2.5-3.1C-716.6-476.2-716.7-476.4-716.8-476.5z M-719.9-473.6l-0.3,0.1v0.9
		c0,9.3-6.9,16.8-15.3,16.8c-4.6,0-7.7-0.8-9.4-1.6c2.6-0.1,5.1-1,7.1-2.6l1.3-0.9h-1.5c-2.9,0-4.7-0.8-5.7-2.8c1,0.3,2,0.4,3,0.3
		c0.4,0,0.8-0.1,1.2-0.1l0.2-1c-2.3-0.8-4.3-2.4-5.3-4.6c1,0.4,2.1,0.6,3.2,0.6h1.6l-1.3-0.9c-1.1-0.8-4.2-3.5-2.7-7.3
		c3.3,3.2,6.4,4.7,12,5.7l0.6,0.1v-1.4c-0.1-3.1,2.4-5.7,5.5-5.8c1.2-0.1,3.1,1,3.7,1.3c0.3,0.2,0.6,0.2,0.9,0.1
		c0.8-0.3,1.7-0.6,2.7-1c-0.5,0.8-1.1,1.5-1.9,2.1c-0.2,0.2-0.3,0.5-0.2,0.7c0.1,0.3,0.4,0.4,0.7,0.3l2-0.7
		C-718.4-474.6-719.1-474-719.9-473.6z"/>
</g>
<g transform="translate(328 566.71)">
	<path class="st0" d="M-830.2-565.8h-12.9c-4.7,0-8.5,3.8-8.6,8.6v12.9c0,4.7,3.8,8.5,8.6,8.5h12.9c4.7,0,8.5-3.8,8.5-8.5v-12.9
		C-821.7-562-825.5-565.8-830.2-565.8z M-822.6-544.4c0,4.2-3.4,7.5-7.5,7.5h-12.9c-4.2,0-7.5-3.4-7.6-7.5v-12.9
		c0-4.2,3.4-7.5,7.6-7.6h12.9c4.2,0,7.5,3.4,7.5,7.6V-544.4z"/>
	<path class="st0" d="M-830.2-562.8h-12.9c-3.1,0-5.5,2.5-5.6,5.6v12.9c0,3.1,2.5,5.5,5.6,5.6h12.9c3.1,0,5.5-2.5,5.5-5.6v-12.9
		C-824.7-560.3-827.1-562.8-830.2-562.8z M-825.6-544.4c0,2.5-2,4.5-4.5,4.6h-12.9c-2.5,0-4.5-2-4.6-4.6v-12.9c0-2.5,2-4.5,4.6-4.6
		h12.9c2.5,0,4.5,2,4.5,4.6V-544.4z"/>
	<path class="st0" d="M-836.6-558.8c-4.4,0-8,3.6-8,8c0,4.4,3.6,8,8,8c4.4,0,8-3.6,8-8C-828.7-555.2-832.2-558.8-836.6-558.8z
		 M-836.6-543.8c-3.9,0-7-3.1-7-7c0-3.9,3.1-7,7-7c3.9,0,7,3.1,7,7C-829.7-547-832.8-543.8-836.6-543.8L-836.6-543.8z"/>
	<path class="st0" d="M-836.6-556.3c-3,0-5.5,2.5-5.5,5.5c0,3,2.5,5.5,5.5,5.5c3,0,5.5-2.5,5.5-5.5l0,0
		C-831.1-553.8-833.6-556.3-836.6-556.3C-836.6-556.3-836.6-556.3-836.6-556.3z M-836.6-546.3c-2.5,0-4.5-2-4.5-4.5
		c0-2.5,2-4.5,4.5-4.5c2.5,0,4.5,2,4.5,4.5C-832.1-548.3-834.1-546.3-836.6-546.3C-836.6-546.3-836.6-546.3-836.6-546.3z"/>
	<path class="st0" d="M-828.6-560.3c-0.8,0-1.5,0.7-1.5,1.5s0.7,1.5,1.5,1.5s1.5-0.7,1.5-1.5C-827.1-559.6-827.8-560.3-828.6-560.3
		C-828.6-560.3-828.6-560.3-828.6-560.3z"/>
</g>
<g transform="translate(328 388.844)">
	<path class="st0" d="M-626.7-387.9c-8.3,0-15,6.7-15,15s6.7,15,15,15c8.3,0,15-6.7,15-15C-611.7-381.2-618.4-387.9-626.7-387.9z
		 M-629.4-360c0-0.2,0.1-0.4,0.1-0.6v-3.5c0-1.3,0.4-1.5,1-2.3c0.3-0.4,0.2-1-0.3-1.2c-0.1-0.1-0.2-0.1-0.4-0.1
		c-3.5-0.5-4.9-2.3-5.4-3.7c-0.7-1.9-0.4-4.1,0.9-5.7c0.2-0.3,0.3-0.7,0.2-1c-0.2-0.8-0.3-1.7-0.1-2.6c0.8,0.2,1.6,0.5,2.3,1
		c0.5,0.3,0.8,0.5,1.4,0.4c1-0.3,2-0.4,3-0.4c1,0,2,0.2,3,0.4c0.6,0.2,0.9-0.1,1.4-0.4c0.7-0.5,1.5-0.8,2.3-1
		c0.2,0.9,0.2,1.7-0.1,2.6c-0.1,0.4,0,0.8,0.2,1c1.3,1.6,1.6,3.8,0.9,5.7c-0.5,1.4-1.9,3.2-5.4,3.7c-0.5,0.1-0.8,0.5-0.7,1
		c0,0.1,0.1,0.2,0.1,0.4c0.5,0.8,1,1,1,2.3v3.5c0,0.2,0,0.4,0.1,0.6C-625.8-359.6-627.6-359.6-629.4-360L-629.4-360z M-622.3-360.5
		c0,0,0-0.1,0-0.1v-3.5c0-0.8-0.1-1.5-0.5-2.2c2.5-0.5,4.5-2.3,5.4-4.6c0.9-2.4,0.5-5.1-1-7.2c0.3-1.2,0.3-3.1-0.4-4
		c-0.3-0.4-0.7-0.6-1.2-0.6c-1.3,0.2-2.5,0.7-3.6,1.5c-1-0.3-2.1-0.4-3.2-0.4h0c-1.1,0-2.1,0.2-3.2,0.4c-1.1-0.8-2.3-1.3-3.6-1.5
		c-0.5,0-0.9,0.2-1.2,0.6c-0.7,0.9-0.7,2.8-0.4,4c-1.5,2.1-1.9,4.8-1,7.2c0.9,2.3,3,4.1,5.4,4.6c-0.3,0.5-0.4,1-0.5,1.6
		c-1,0.5-2.1,0.1-2.6-0.9c-0.6-1.2-1.9-2-3.3-2c-0.5,0.1-0.8,0.5-0.8,1c0.1,0.5,0.5,0.8,0.9,0.8c0.6-0.1,1.3,0.6,1.6,1.2
		c0.8,1.5,2.5,2.2,4.1,1.8v2.3c0,0,0,0.1,0,0.1c-6.9-2.4-10.5-10-8.1-16.9c2.4-6.9,10-10.5,16.9-8.1c6.9,2.4,10.5,10,8.1,16.9
		C-615.6-364.8-618.5-361.8-622.3-360.5L-622.3-360.5z"/>
</g>
<g transform="translate(328 388.844)">
	<path class="st1" d="M-574.2-387.9c-8.3,0-15,6.7-15,15s6.7,15,15,15c8.3,0,15-6.7,15-15C-559.2-381.2-565.9-387.9-574.2-387.9z
		 M-576.9-360c0-0.2,0.1-0.4,0.1-0.6v-3.5c0-1.3,0.4-1.5,1-2.3c0.3-0.4,0.2-1-0.3-1.2c-0.1-0.1-0.2-0.1-0.4-0.1
		c-3.5-0.5-4.9-2.3-5.4-3.7c-0.7-1.9-0.4-4.1,0.9-5.7c0.2-0.3,0.3-0.7,0.2-1c-0.2-0.8-0.3-1.7-0.1-2.6c0.8,0.2,1.6,0.5,2.3,1
		c0.5,0.3,0.8,0.5,1.4,0.4c1-0.3,2-0.4,3-0.4c1,0,2,0.2,3,0.4c0.6,0.2,0.9-0.1,1.4-0.4c0.7-0.5,1.5-0.8,2.3-1
		c0.2,0.9,0.2,1.7-0.1,2.6c-0.1,0.4,0,0.8,0.2,1c1.3,1.6,1.6,3.8,0.9,5.7c-0.5,1.4-1.9,3.2-5.4,3.7c-0.5,0.1-0.8,0.5-0.7,1
		c0,0.1,0.1,0.2,0.1,0.4c0.5,0.8,1,1,1,2.3v3.5c0,0.2,0,0.4,0.1,0.6C-573.3-359.6-575.1-359.6-576.9-360L-576.9-360z M-569.8-360.5
		c0,0,0-0.1,0-0.1v-3.5c0-0.8-0.1-1.5-0.5-2.2c2.5-0.5,4.5-2.3,5.4-4.6c0.9-2.4,0.5-5.1-1-7.2c0.3-1.2,0.3-3.1-0.4-4
		c-0.3-0.4-0.7-0.6-1.2-0.6c-1.3,0.2-2.5,0.7-3.6,1.5c-1-0.3-2.1-0.4-3.2-0.4h0c-1.1,0-2.1,0.2-3.2,0.4c-1.1-0.8-2.3-1.3-3.6-1.5
		c-0.5,0-0.9,0.2-1.2,0.6c-0.7,0.9-0.7,2.8-0.4,4c-1.5,2.1-1.9,4.8-1,7.2c0.9,2.3,3,4.1,5.4,4.6c-0.3,0.5-0.4,1-0.5,1.6
		c-1,0.5-2.1,0.1-2.6-0.9c-0.6-1.2-1.9-2-3.3-2c-0.5,0.1-0.8,0.5-0.8,1c0.1,0.5,0.5,0.8,0.9,0.8c0.6-0.1,1.3,0.6,1.6,1.2
		c0.8,1.5,2.5,2.2,4.1,1.8v2.3c0,0,0,0.1,0,0.1c-6.9-2.4-10.5-10-8.1-16.9c2.4-6.9,10-10.5,16.9-8.1c6.9,2.4,10.5,10,8.1,16.9
		C-563.1-364.8-566-361.8-569.8-360.5L-569.8-360.5z"/>
</g>
<g transform="translate(328 527.921)">
	<g transform="translate(0 0)">
		<path class="st1" d="M-463.8-518h7.6c0.3,0,0.5-0.2,0.5-0.5c0,0,0,0,0-0.1v-2.2c0-0.3-0.2-0.5-0.5-0.5c0,0,0,0-0.1,0h-7.6
			c-0.3,0-0.5,0.2-0.5,0.5c0,0,0,0,0,0.1v2.2C-464.4-518.2-464.1-518-463.8-518C-463.8-518-463.8-518-463.8-518z M-463.3-520.1h6.5
			v1.1h-6.5V-520.1z"/>
		<path class="st1" d="M-471.7-513.1c1.6-1,2.4-3,1.9-4.9c-0.6-3.5-4.2-4.4-6-4.3h-9.2c-0.3,0-0.5,0.2-0.5,0.5c0,0,0,0,0,0.1v18.4
			c0,0.3,0.2,0.5,0.5,0.5c0,0,0,0,0.1,0h9.9c2.3,0,6-0.9,6.4-4.7C-468.3-509.8-469.5-512.1-471.7-513.1z M-469.8-507.6
			c-0.5,4-5.5,3.7-5.7,3.7h-8.9v-17.3h8.6c0.1,0,4.3,0,4.9,3.4c0.5,1.8-0.6,3.7-2.3,4.2c-0.2,0.1-0.4,0.3-0.4,0.5
			c0,0.3,0.2,0.5,0.4,0.5C-470.9-512.1-469.4-509.9-469.8-507.6L-469.8-507.6z"/>
		<path class="st1" d="M-453-508.8c0-4.8-3.1-8.1-7.6-8.1c-4.3,0-7.6,3.7-7.6,7c0,4.7,3.2,8.1,7.6,8.1c3.1,0.1,5.9-1.8,7-4.8
			c0-0.2,0-0.3-0.1-0.4c-0.1-0.1-0.3-0.2-0.4-0.2h-3.2c-0.2,0-0.4,0.2-0.5,0.4c-0.4,0.8-1.3,1.3-2.2,1.2c-1.4,0.1-2.7-1.1-2.7-2.5
			c0-0.1,0-0.1,0-0.2h9.2C-453.2-508.2-453-508.4-453-508.8C-453-508.7-453-508.8-453-508.8z M-463.3-509.3c-0.3,0-0.5,0.2-0.5,0.5
			c0,0,0,0,0,0.1c0,2.7,1.5,4.3,3.8,4.3c1.3,0.1,2.5-0.5,3.1-1.6h2.1c-1.1,2-3.3,3.3-5.6,3.2c-3.8,0-6.5-3-6.5-7c0-2.8,2.8-6,6.5-6
			c4.2,0,6.3,3.2,6.4,6.5L-463.3-509.3z"/>
		<path class="st1" d="M-481.1-514.2h5.4c1.5,0,2.7-1.2,2.7-2.7c0-1.5-1.2-2.7-2.7-2.7h-5.4c-0.3,0-0.5,0.2-0.5,0.5c0,0,0,0,0,0.1
			v4.3C-481.7-514.4-481.5-514.2-481.1-514.2C-481.2-514.2-481.2-514.2-481.1-514.2z M-480.6-518.5h4.9c0.9,0,1.6,0.7,1.6,1.6
			c0,0.9-0.7,1.6-1.6,1.6h-4.9L-480.6-518.5z"/>
		<path class="st1" d="M-476.3-512h-4.9c-0.3,0-0.5,0.2-0.5,0.5c0,0,0,0,0,0.1v5.4c0,0.3,0.2,0.5,0.5,0.5c0,0,0,0,0.1,0h4.9
			c1.8,0,3.2-1.5,3.2-3.2S-474.5-512-476.3-512L-476.3-512z M-476.3-506.6h-4.3v-4.3h4.3c1.2,0,2.2,1,2.2,2.2
			C-474.1-507.6-475.1-506.6-476.3-506.6L-476.3-506.6z"/>
		<path class="st1" d="M-460.3-514.7c-1.9-0.1-3.4,1.3-3.5,3.2c0,0,0,0,0,0.1v0.5c0,0.3,0.2,0.5,0.5,0.5c0,0,0,0,0.1,0h6
			c0.3,0,0.5-0.2,0.5-0.5c0,0,0,0,0-0.1v-0.5c0-1.8-1.6-3.3-3.4-3.3C-460.2-514.7-460.2-514.7-460.3-514.7z M-462.7-511.5
			c0.2-1.3,1.4-2.3,2.7-2.1c1.1,0.1,2,1,2.1,2.1H-462.7z"/>
	</g>
</g>
<g transform="translate(328 434.844)">
	<g transform="translate(0 0)">
		<path class="st1" d="M-375.2-433.7c-2.2,0-4,1.8-4,4c0,0,0,0,0,0c0,1.1,0.4,2.1,1.2,2.8c0.7,0.8,1.7,1.2,2.8,1.2h0.1
			c1,0,2-0.4,2.7-1.2c0.8-0.8,1.2-1.8,1.2-2.8c0-1.1-0.4-2.1-1.1-2.8C-373.1-433.3-374.1-433.7-375.2-433.7z M-373.1-427.5
			c-0.5,0.6-1.3,0.9-2.1,0.9c-0.8,0-1.5-0.3-2.1-0.9c-0.6-0.6-0.9-1.3-0.9-2.1c0-1.7,1.3-3,3-3c0,0,0,0,0.1,0c0.8,0,1.5,0.3,2.1,0.8
			c0.6,0.6,0.9,1.3,0.9,2.2C-372.2-428.9-372.6-428.1-373.1-427.5z"/>
		<path class="st1" d="M-373.2-424.7h-4.1c-0.8,0-1.5,0.7-1.5,1.5c0,0,0,0,0,0v17.5c0,0.8,0.7,1.5,1.5,1.5h4c0.8,0,1.5-0.6,1.5-1.5
			v-17.5C-371.8-424-372.4-424.7-373.2-424.7z M-372.7-405.6c0,0.3-0.2,0.5-0.5,0.5h-4c-0.3,0-0.5-0.2-0.5-0.5v-17.5
			c0-0.3,0.2-0.5,0.4-0.5h4.1c0.3,0,0.5,0.2,0.5,0.5V-405.6z"/>
		<path class="st1" d="M-356.2-425.2h-1.1c-1.9,0-3.7,0.8-5,2.2v-0.7c0-0.5-0.5-1-1-1h-5c-0.5,0-1,0.4-1,0.9v18.6
			c0,0.5,0.5,0.9,1,0.9h5.5c0.5,0,1-0.4,1-0.9v-10.8c-0.1-1.6,1.1-2.9,2.7-2.9c0,0,0,0,0.1,0c0.8,0,1.5,0.3,2.1,0.9
			c0.5,0.6,0.8,1.3,0.7,2.1v10.8c0,0.5,0.5,1,1,1h5c0.5,0,1-0.5,1-1v-12.9c0.1-3.8-3-7-6.8-7.1
			C-356.1-425.2-356.2-425.2-356.2-425.2z M-350.2-405.2L-350.2-405.2l-5,0.1l0-10.8c0.1-1-0.3-2-1-2.8c-0.7-0.7-1.8-1.2-2.8-1.1
			c-2.1,0.1-3.8,1.8-3.8,3.9v10.7h-5.5v-18.5h4.9l0.1,0v3.1l1.4-1.4l0,0c1.1-1.5,2.8-2.3,4.6-2.3h1.1c3.3,0,6,2.7,6,6
			c0,0,0,0.1,0,0.1V-405.2z"/>
	</g>
</g>
<g transform="translate(328 482.978)">
	<path class="st1" d="M-401.9-476.5c-0.2-0.1-0.4-0.2-0.6-0.2l-1,0.4c0.6-0.6,1-1.4,1.3-2.2c0.1-0.2,0.1-0.5-0.1-0.6
		c-0.2-0.2-0.4-0.2-0.6-0.1c-1.2,0.5-2.4,1-3.7,1.4c0,0.1-0.1,0-0.1,0c-1.3-0.8-2.7-1.3-4.2-1.5c-3.7,0.1-6.6,3.2-6.5,6.8v0.2
		c-5.3-1-8.2-2.5-11.4-5.9l-0.5-0.5l-0.3,0.6c-1.7,3.3-0.5,6.3,1.5,8.4c-0.8-0.1-1.5-0.4-2.1-0.9c-0.2-0.2-0.5-0.2-0.7-0.1
		c-0.2,0.1-0.3,0.4-0.3,0.7c0.8,2.3,2.3,4.3,4.4,5.5c-0.9,0.1-1.7-0.2-2.4-0.6c-0.2-0.1-0.5-0.1-0.7,0.1c-0.2,0.1-0.3,0.4-0.2,0.7
		c0.8,2.5,3,4.2,5.5,4.3c-2,1.1-4.2,1.7-6.4,1.6c-0.3,0-0.6,0.2-0.7,0.5c-0.1,0.3,0,0.6,0.2,0.8c1.8,1.5,5.9,2.3,10.9,2.3
		c9,0,16.3-8,16.3-17.8v-0.2c1.2-0.6,2.1-1.8,2.5-3.1C-401.7-476.2-401.8-476.4-401.9-476.5z M-405-473.6l-0.3,0.1v0.9
		c0,9.3-6.9,16.8-15.3,16.8c-4.6,0-7.7-0.8-9.4-1.6c2.6-0.1,5.1-1,7.1-2.6l1.3-0.9h-1.5c-2.9,0-4.7-0.8-5.7-2.8c1,0.3,2,0.4,3,0.3
		c0.4,0,0.8-0.1,1.2-0.1l0.2-1c-2.3-0.8-4.3-2.4-5.3-4.6c1,0.4,2.1,0.6,3.2,0.6h1.6l-1.3-0.9c-1.1-0.8-4.2-3.5-2.7-7.3
		c3.3,3.2,6.4,4.7,12,5.7l0.6,0.1v-1.4c-0.1-3.1,2.4-5.7,5.5-5.8c1.2-0.1,3.1,1,3.7,1.3c0.3,0.2,0.6,0.2,0.9,0.1
		c0.8-0.3,1.7-0.6,2.7-1c-0.5,0.8-1.1,1.5-1.9,2.1c-0.2,0.2-0.3,0.5-0.2,0.7c0.1,0.3,0.4,0.4,0.7,0.3l2-0.7
		C-403.5-474.6-404.1-474-405-473.6z"/>
</g>
<g transform="translate(328 566.71)">
	<path class="st1" d="M-515.3-565.8h-12.9c-4.7,0-8.5,3.8-8.5,8.6v12.9c0,4.7,3.8,8.5,8.5,8.5h12.9c4.7,0,8.5-3.8,8.5-8.5v-12.9
		C-506.7-562-510.5-565.8-515.3-565.8z M-507.7-544.4c0,4.2-3.4,7.5-7.5,7.5h-12.9c-4.2,0-7.5-3.4-7.5-7.5v-12.9
		c0-4.2,3.4-7.5,7.5-7.6h12.9c4.2,0,7.5,3.4,7.5,7.6V-544.4z"/>
	<path class="st1" d="M-515.3-562.8h-12.9c-3.1,0-5.5,2.5-5.5,5.6v12.9c0,3.1,2.5,5.5,5.5,5.6h12.9c3.1,0,5.5-2.5,5.5-5.6v-12.9
		C-509.7-560.3-512.2-562.8-515.3-562.8z M-510.7-544.4c0,2.5-2,4.5-4.5,4.6h-12.9c-2.5,0-4.5-2-4.5-4.6v-12.9c0-2.5,2-4.5,4.5-4.6
		h12.9c2.5,0,4.5,2,4.5,4.6V-544.4z"/>
	<path class="st1" d="M-521.7-558.8c-4.4,0-8,3.6-8,8c0,4.4,3.6,8,8,8c4.4,0,8-3.6,8-8C-513.7-555.2-517.3-558.8-521.7-558.8z
		 M-521.7-543.8c-3.9,0-7-3.1-7-7c0-3.9,3.1-7,7-7c3.9,0,7,3.1,7,7C-514.7-547-517.9-543.8-521.7-543.8L-521.7-543.8z"/>
	<path class="st1" d="M-521.7-556.3c-3,0-5.5,2.5-5.5,5.5c0,3,2.5,5.5,5.5,5.5c3,0,5.5-2.5,5.5-5.5l0,0
		C-516.2-553.8-518.7-556.3-521.7-556.3C-521.7-556.3-521.7-556.3-521.7-556.3z M-521.7-546.3c-2.5,0-4.5-2-4.5-4.5
		c0-2.5,2-4.5,4.5-4.5s4.5,2,4.5,4.5C-517.2-548.3-519.2-546.3-521.7-546.3C-521.7-546.3-521.7-546.3-521.7-546.3z"/>
	<path class="st1" d="M-513.7-560.3c-0.8,0-1.5,0.7-1.5,1.5s0.7,1.5,1.5,1.5s1.5-0.7,1.5-1.5C-512.2-559.6-512.8-560.3-513.7-560.3
		C-513.7-560.3-513.7-560.3-513.7-560.3z"/>
</g>
<g transform="translate(328 527.921)">
	<g transform="translate(0 0)">
		<path class="st2" d="M-253.9-518h7.6c0.3,0,0.5-0.2,0.5-0.5c0,0,0,0,0-0.1v-2.2c0-0.3-0.2-0.5-0.5-0.5c0,0,0,0-0.1,0h-7.6
			c-0.3,0-0.5,0.2-0.5,0.5c0,0,0,0,0,0.1v2.2C-254.4-518.2-254.2-518-253.9-518C-253.9-518-253.9-518-253.9-518z M-253.3-520.1h6.5
			v1.1h-6.5V-520.1z"/>
		<path class="st2" d="M-261.7-513.1c1.6-1,2.4-3,1.9-4.9c-0.6-3.5-4.2-4.4-6-4.3h-9.2c-0.3,0-0.5,0.2-0.5,0.5c0,0,0,0,0,0.1v18.4
			c0,0.3,0.2,0.5,0.5,0.5c0,0,0,0,0.1,0h9.9c2.3,0,6-0.9,6.4-4.7C-258.3-509.8-259.5-512.1-261.7-513.1z M-259.8-507.6
			c-0.5,4-5.5,3.7-5.7,3.7h-8.9v-17.3h8.6c0.1,0,4.3,0,4.9,3.4c0.5,1.8-0.6,3.7-2.3,4.2c-0.2,0.1-0.4,0.3-0.4,0.5
			c0,0.3,0.2,0.5,0.4,0.5C-260.9-512.1-259.4-509.9-259.8-507.6L-259.8-507.6z"/>
		<path class="st2" d="M-243-508.8c0-4.8-3.1-8.1-7.6-8.1c-4.3,0-7.6,3.7-7.6,7c0,4.7,3.2,8.1,7.6,8.1c3.1,0.1,5.9-1.8,7-4.8
			c0-0.2,0-0.3-0.1-0.4c-0.1-0.1-0.3-0.2-0.4-0.2h-3.2c-0.2,0-0.4,0.2-0.5,0.4c-0.4,0.8-1.3,1.3-2.2,1.2c-1.4,0.1-2.7-1.1-2.7-2.5
			c0-0.1,0-0.1,0-0.2h9.2C-243.3-508.2-243-508.4-243-508.8C-243-508.7-243-508.8-243-508.8z M-253.4-509.3c-0.3,0-0.5,0.2-0.5,0.5
			c0,0,0,0,0,0.1c0,2.7,1.5,4.3,3.8,4.3c1.3,0.1,2.5-0.5,3.1-1.6h2.1c-1.1,2-3.3,3.3-5.6,3.2c-3.8,0-6.5-3-6.5-7c0-2.8,2.8-6,6.5-6
			c4.2,0,6.3,3.2,6.4,6.5L-253.4-509.3z"/>
		<path class="st2" d="M-271.2-514.2h5.4c1.5,0,2.7-1.2,2.7-2.7c0-1.5-1.2-2.7-2.7-2.7h-5.4c-0.3,0-0.5,0.2-0.5,0.5c0,0,0,0,0,0.1
			v4.3C-271.7-514.4-271.5-514.2-271.2-514.2C-271.2-514.2-271.2-514.2-271.2-514.2z M-270.6-518.5h4.9c0.9,0,1.6,0.7,1.6,1.6
			c0,0.9-0.7,1.6-1.6,1.6h-4.9L-270.6-518.5z"/>
		<path class="st2" d="M-266.3-512h-4.9c-0.3,0-0.5,0.2-0.5,0.5c0,0,0,0,0,0.1v5.4c0,0.3,0.2,0.5,0.5,0.5c0,0,0,0,0.1,0h4.9
			c1.8,0,3.2-1.5,3.2-3.2S-264.5-512-266.3-512L-266.3-512z M-266.3-506.6h-4.3v-4.3h4.3c1.2,0,2.2,1,2.2,2.2
			C-264.1-507.6-265.1-506.6-266.3-506.6L-266.3-506.6z"/>
		<path class="st2" d="M-250.3-514.7c-1.9-0.1-3.4,1.3-3.5,3.2c0,0,0,0,0,0.1v0.5c0,0.3,0.2,0.5,0.5,0.5c0,0,0,0,0.1,0h6
			c0.3,0,0.5-0.2,0.5-0.5c0,0,0,0,0-0.1v-0.5c0-1.8-1.6-3.3-3.4-3.3C-250.2-514.7-250.3-514.7-250.3-514.7z M-252.8-511.5
			c0.2-1.3,1.4-2.3,2.7-2.1c1.1,0.1,2,1,2.1,2.1H-252.8z"/>
	</g>
</g>
<g transform="translate(328 434.844)">
	<g transform="translate(0 0)">
		<path class="st2" d="M-165.2-433.7c-2.2,0-4,1.8-4,4c0,0,0,0,0,0c0,1.1,0.4,2.1,1.2,2.8c0.7,0.8,1.7,1.2,2.8,1.2h0.1
			c1,0,2-0.4,2.7-1.2c0.8-0.8,1.2-1.8,1.2-2.8c0-1.1-0.4-2.1-1.1-2.8C-163.2-433.3-164.2-433.7-165.2-433.7z M-163.2-427.5
			c-0.5,0.6-1.3,0.9-2.1,0.9c-0.8,0-1.5-0.3-2.1-0.9c-0.6-0.6-0.9-1.3-0.9-2.1c0-1.7,1.3-3,3-3c0,0,0,0,0.1,0c0.8,0,1.5,0.3,2.1,0.8
			c0.6,0.6,0.9,1.3,0.9,2.2C-162.3-428.9-162.6-428.1-163.2-427.5z"/>
		<path class="st2" d="M-163.3-424.7h-4c-0.8,0-1.5,0.7-1.5,1.5c0,0,0,0,0,0v17.5c0,0.8,0.7,1.5,1.5,1.5h4c0.8,0,1.5-0.6,1.5-1.5
			v-17.5C-161.8-424-162.5-424.7-163.3-424.7z M-162.8-405.6c0,0.3-0.2,0.5-0.5,0.5h-4c-0.3,0-0.5-0.2-0.5-0.5v-17.5
			c0-0.3,0.2-0.5,0.5-0.5h4c0.3,0,0.5,0.2,0.5,0.5V-405.6z"/>
		<path class="st2" d="M-146.3-425.2h-1.1c-1.9,0-3.7,0.8-5,2.2v-0.7c0-0.5-0.5-1-1-1h-5c-0.5,0-1,0.4-1,0.9v18.6
			c0,0.5,0.5,0.9,1,0.9h5.5c0.5,0,1-0.4,1-0.9v-10.8c-0.1-1.6,1.1-2.9,2.7-2.9c0,0,0,0,0.1,0c0.8,0,1.5,0.3,2.1,0.9
			c0.5,0.6,0.8,1.3,0.7,2.1v10.8c0,0.5,0.5,1,1,1h5c0.5,0,1-0.5,1-1v-12.9c0.1-3.8-3-7-6.8-7.1
			C-146.2-425.2-146.2-425.2-146.3-425.2z M-140.3-405.2L-140.3-405.2l-4.9,0.1l-0.1-10.8c0.1-1-0.3-2-0.9-2.8
			c-0.7-0.7-1.8-1.2-2.8-1.1c-2.1,0.1-3.8,1.8-3.8,3.9v10.7h-5.5v-18.5h4.9l0.1,0v3.1l1.4-1.4l0.1,0c1.1-1.5,2.8-2.3,4.6-2.3h1.1
			c3.3,0,6,2.7,6,6c0,0,0,0.1,0,0.1L-140.3-405.2z"/>
	</g>
</g>
<g transform="translate(328 482.978)">
	<path class="st2" d="M-191.9-476.5c-0.2-0.1-0.4-0.2-0.6-0.2l-1,0.4c0.6-0.6,1-1.4,1.3-2.2c0.1-0.2,0.1-0.5-0.1-0.6
		c-0.2-0.2-0.4-0.2-0.6-0.1c-1.2,0.5-2.4,1-3.7,1.4c0,0.1-0.1,0-0.1,0c-1.3-0.8-2.7-1.3-4.2-1.5c-3.7,0.1-6.6,3.2-6.5,6.8v0.2
		c-5.3-1-8.2-2.5-11.4-5.9l-0.5-0.5l-0.3,0.6c-1.7,3.3-0.5,6.3,1.5,8.4c-0.8-0.1-1.5-0.4-2.1-0.9c-0.2-0.2-0.5-0.2-0.7-0.1
		c-0.2,0.1-0.3,0.4-0.3,0.7c0.8,2.3,2.3,4.3,4.4,5.5c-0.9,0.1-1.7-0.2-2.4-0.6c-0.2-0.1-0.5-0.1-0.7,0.1c-0.2,0.1-0.3,0.4-0.2,0.7
		c0.8,2.5,3,4.2,5.5,4.3c-2,1.1-4.2,1.7-6.4,1.6c-0.3,0-0.6,0.2-0.7,0.5c-0.1,0.3,0,0.6,0.2,0.8c1.8,1.5,5.9,2.3,10.9,2.3
		c9,0,16.3-8,16.3-17.8v-0.2c1.2-0.6,2.1-1.8,2.5-3.1C-191.7-476.2-191.8-476.4-191.9-476.5z M-195-473.6l-0.3,0.1v0.9
		c0,9.3-6.9,16.8-15.3,16.8c-4.6,0-7.7-0.8-9.4-1.6c2.6-0.1,5.1-1,7.1-2.6l1.3-0.9h-1.5c-2.9,0-4.7-0.8-5.7-2.8c1,0.3,2,0.4,3,0.3
		c0.4,0,0.8-0.1,1.2-0.1l0.2-1c-2.3-0.8-4.3-2.4-5.3-4.6c1,0.4,2.1,0.6,3.2,0.6h1.6l-1.3-0.9c-1.1-0.8-4.2-3.5-2.7-7.3
		c3.3,3.2,6.4,4.7,12,5.7l0.6,0.1v-1.4c-0.1-3.1,2.4-5.7,5.5-5.8c1.2-0.1,3.1,1,3.7,1.3c0.3,0.2,0.6,0.2,0.9,0.1
		c0.8-0.3,1.7-0.6,2.7-1c-0.5,0.8-1.1,1.5-1.9,2.1c-0.2,0.2-0.3,0.5-0.2,0.7c0.1,0.3,0.4,0.4,0.7,0.3l2-0.7
		C-193.5-474.6-194.2-474-195-473.6z"/>
</g>
<g transform="translate(328 566.71)">
	<path class="st2" d="M-305.3-565.8h-12.9c-4.7,0-8.5,3.8-8.5,8.6v12.9c0,4.7,3.8,8.5,8.5,8.5h12.9c4.7,0,8.5-3.8,8.6-8.5v-12.9
		C-296.8-562-300.6-565.8-305.3-565.8z M-297.8-544.4c0,4.2-3.4,7.5-7.6,7.5h-12.9c-4.2,0-7.5-3.4-7.5-7.5v-12.9
		c0-4.2,3.4-7.5,7.5-7.6h12.9c4.2,0,7.5,3.4,7.6,7.6V-544.4z"/>
	<path class="st2" d="M-305.3-562.8h-12.9c-3.1,0-5.5,2.5-5.5,5.6v12.9c0,3.1,2.5,5.5,5.5,5.6h12.9c3.1,0,5.5-2.5,5.6-5.6v-12.9
		C-299.8-560.3-302.2-562.8-305.3-562.8z M-300.8-544.4c0,2.5-2,4.5-4.6,4.6h-12.9c-2.5,0-4.5-2-4.5-4.6v-12.9c0-2.5,2-4.5,4.5-4.6
		h12.9c2.5,0,4.5,2,4.6,4.6V-544.4z"/>
	<path class="st2" d="M-311.8-558.8c-4.4,0-8,3.6-8,8c0,4.4,3.6,8,8,8c4.4,0,8-3.6,8-8C-303.8-555.2-307.3-558.8-311.8-558.8z
		 M-311.8-543.8c-3.9,0-7-3.1-7-7c0-3.9,3.1-7,7-7c3.9,0,7,3.1,7,7C-304.8-547-307.9-543.8-311.8-543.8L-311.8-543.8z"/>
	<path class="st2" d="M-311.8-556.3c-3,0-5.5,2.5-5.5,5.5c0,3,2.5,5.5,5.5,5.5s5.5-2.5,5.5-5.5l0,0
		C-306.2-553.8-308.7-556.3-311.8-556.3C-311.7-556.3-311.7-556.3-311.8-556.3z M-311.8-546.3c-2.5,0-4.5-2-4.5-4.5
		c0-2.5,2-4.5,4.5-4.5c2.5,0,4.5,2,4.5,4.5C-307.2-548.3-309.2-546.3-311.8-546.3C-311.7-546.3-311.7-546.3-311.8-546.3z"/>
	<path class="st2" d="M-303.8-560.3c-0.8,0-1.5,0.7-1.5,1.5s0.7,1.5,1.5,1.5s1.5-0.7,1.5-1.5C-302.2-559.6-302.9-560.3-303.8-560.3
		C-303.7-560.3-303.7-560.3-303.8-560.3z"/>
</g>
<g transform="translate(328 388.844)">
	<path class="st2" d="M-101.8-387.9c-8.3,0-15,6.7-15,15s6.7,15,15,15s15-6.7,15-15C-86.8-381.2-93.5-387.9-101.8-387.9z
		 M-104.5-360c0-0.2,0.1-0.4,0.1-0.6v-3.5c0-1.3,0.4-1.5,1-2.3c0.3-0.4,0.2-1-0.3-1.2c-0.1-0.1-0.2-0.1-0.4-0.1
		c-3.5-0.5-4.9-2.3-5.4-3.7c-0.7-1.9-0.4-4.1,0.9-5.7c0.2-0.3,0.3-0.7,0.2-1c-0.2-0.8-0.3-1.7-0.1-2.6c0.8,0.2,1.6,0.5,2.3,1
		c0.5,0.3,0.8,0.5,1.4,0.4c1-0.3,2-0.4,3-0.4c1,0,2,0.2,3,0.4c0.6,0.2,0.9-0.1,1.4-0.4c0.7-0.5,1.5-0.8,2.3-1
		c0.2,0.9,0.2,1.7-0.1,2.6c-0.1,0.4,0,0.8,0.2,1c1.3,1.6,1.6,3.8,0.9,5.7c-0.5,1.4-1.9,3.2-5.4,3.7c-0.5,0.1-0.8,0.5-0.7,1
		c0,0.1,0.1,0.2,0.1,0.4c0.5,0.8,1,1,1,2.3v3.5c0,0.2,0,0.4,0.1,0.6C-100.9-359.6-102.7-359.6-104.5-360L-104.5-360z M-97.4-360.5
		c0,0,0-0.1,0-0.1v-3.5c0-0.8-0.1-1.5-0.5-2.2c2.5-0.5,4.5-2.3,5.4-4.6c0.9-2.4,0.5-5.1-1-7.2c0.3-1.2,0.3-3.1-0.4-4
		c-0.3-0.4-0.7-0.6-1.2-0.6c-1.3,0.2-2.5,0.7-3.6,1.5c-1-0.3-2.1-0.4-3.2-0.4h0c-1.1,0-2.1,0.2-3.2,0.4c-1.1-0.8-2.3-1.3-3.6-1.5
		c-0.5,0-0.9,0.2-1.2,0.6c-0.7,0.9-0.7,2.8-0.4,4c-1.5,2.1-1.9,4.8-1,7.2c0.9,2.3,3,4.1,5.4,4.6c-0.3,0.5-0.4,1-0.5,1.6
		c-1,0.5-2.1,0.1-2.6-0.9c-0.6-1.2-1.9-2-3.3-2c-0.5,0.1-0.8,0.5-0.8,1c0.1,0.5,0.5,0.8,0.9,0.8c0.6-0.1,1.3,0.6,1.6,1.2
		c0.8,1.5,2.5,2.2,4.1,1.8v2.3c0,0,0,0.1,0,0.1c-6.9-2.4-10.5-10-8.1-16.9c2.4-6.9,10-10.5,16.9-8.1c6.9,2.4,10.5,10,8.1,16.9
		C-90.7-364.8-93.6-361.8-97.4-360.5L-97.4-360.5z"/>
</g>
</svg>
