<svg xmlns="http://www.w3.org/2000/svg" width="30" height="30" viewBox="0 0 30 30"><defs><style>.a{fill:#fdfdfd;}</style></defs><path class="a" d="M25.613,24.767a.59.59,0,1,1-.835,0A.59.59,0,0,1,25.613,24.767ZM4.394,4.394A15,15,0,0,1,27.378,23.478a.59.59,0,1,1-.973-.668h0A13.832,13.832,0,0,0,21.967,3.063l.017.024a13.585,13.585,0,0,1-11.177,21.3h0a13.46,13.46,0,0,1-7.744-2.423,13.832,13.832,0,0,0,19.76,4.428h0a.59.59,0,0,1,.669.972A15,15,0,0,1,4.394,4.394Zm6.414,18.816a12.429,12.429,0,0,0,12.4-12.4,12.308,12.308,0,0,0-3.757-8.892A13.823,13.823,0,0,0,1.915,19.45,12.292,12.292,0,0,0,10.807,23.209Z" transform="translate(0 0)"/></svg>